<?xml version="1.0" encoding="UTF-8" standalone="no"?>
<!DOCTYPE svg PUBLIC "-//W3C//DTD SVG 1.1//EN" "http://www.w3.org/Graphics/SVG/1.1/DTD/svg11.dtd">
<svg width="100%" height="100%" viewBox="0 0 791 110" version="1.1" xmlns="http://www.w3.org/2000/svg" xmlns:xlink="http://www.w3.org/1999/xlink" xml:space="preserve" xmlns:serif="http://www.serif.com/" style="fill-rule:evenodd;clip-rule:evenodd;stroke-linejoin:round;stroke-miterlimit:2;">
    <g transform="matrix(1,0,0,1,-589.928,-724.873)">
        <g transform="matrix(10.3623,0,0,10.3623,-5146.16,-6669.35)">
            <text x="555.203px" y="720.821px" style="font-family:'ArcadeClassic';font-size:12px;fill:rgb(167,119,255);">SWAPI Batlle</text>
        </g>
        <g transform="matrix(10.7318,0,0,11.0197,-5368.5,-7140.75)">
            <text x="555.203px" y="720.821px" style="font-family:'ArcadeClassic';font-size:12px;fill:rgb(112,0,169);">SWAPI Batlle</text>
        </g>
        <g transform="matrix(10.3623,0,0,10.3623,-5146.16,-6669.35)">
            <text x="555.203px" y="720.821px" style="font-family:'ArcadeClassic';font-size:12px;fill:rgb(255,202,11);fill-opacity:0.56;">SWAPI Batlle</text>
        </g>
        <g transform="matrix(10.3623,0,0,10.3623,-5150.16,-6673.35)">
            <text x="555.203px" y="720.821px" style="font-family:'ArcadeClassic';font-size:12px;fill:rgb(255,87,179);">SWAPI Batlle</text>
        </g>
        <g transform="matrix(10.3623,0,0,10.3623,-5148.16,-6671.35)">
            <text x="555.203px" y="720.821px" style="font-family:'ArcadeClassic';font-size:12px;fill:url(#_Linear1);">SWAPI Batlle</text>
        </g>
        <g transform="matrix(4.55425,0,0,4.55425,-1727.21,-2444.66)">
            <text x="555.203px" y="720.821px" style="font-family:'ArcadeClassic';font-size:12px;fill:rgb(255,51,245);">The SWAPI GAME</text>
        </g>
        <g transform="matrix(4.55425,0,0,4.55425,-1733.21,-2446.66)">
            <text x="555.203px" y="720.821px" style="font-family:'ArcadeClassic';font-size:12px;fill:rgb(0,245,249);fill-opacity:0.6;">The SWAPI GAME</text>
        </g>
    </g>
    <defs>
        <linearGradient id="_Linear1" x1="0" y1="0" x2="1" y2="0" gradientUnits="userSpaceOnUse" gradientTransform="matrix(44.3918,13.5105,-1.11652,3.66856,576.916,709.434)"><stop offset="0" style="stop-color:rgb(113,55,240);stop-opacity:1"/><stop offset="1" style="stop-color:rgb(186,0,115);stop-opacity:1"/></linearGradient>
    </defs>
</svg>
