<?xml version="1.0" encoding="UTF-8" standalone="no"?>
<!DOCTYPE svg PUBLIC "-//W3C//DTD SVG 1.1//EN" "http://www.w3.org/Graphics/SVG/1.1/DTD/svg11.dtd">
<svg width="100%" height="100%" viewBox="0 0 1801 591" version="1.1" xmlns="http://www.w3.org/2000/svg" xmlns:xlink="http://www.w3.org/1999/xlink" xml:space="preserve" xmlns:serif="http://www.serif.com/" style="fill-rule:evenodd;clip-rule:evenodd;stroke-linejoin:round;stroke-miterlimit:2;">
    <g opacity="0.66">
        <g transform="matrix(1,0,0,1,0.5,-204.5)">
            <g transform="matrix(1,0,0,1,-400,5)">
                <circle cx="565" cy="295" r="5" style="fill:rgb(235,235,235);"/>
            </g>
            <g transform="matrix(-0.909123,-0.416528,0.416528,-0.909123,784.498,1176.9)">
                <circle cx="565" cy="295" r="5" style="fill:rgb(235,235,235);"/>
            </g>
            <g transform="matrix(0.736788,0,0,0.736788,-107.601,263.964)">
                <circle cx="565" cy="295" r="5" style="fill:rgb(235,235,235);"/>
            </g>
            <g transform="matrix(0.736788,0,0,0.736788,80.0309,78.9636)">
                <circle cx="565" cy="295" r="5" style="fill:rgb(235,235,235);"/>
            </g>
            <g transform="matrix(-0.669831,-0.306893,0.306893,-0.669831,626.538,819.679)">
                <circle cx="565" cy="295" r="5" style="fill:rgb(235,235,235);"/>
            </g>
            <g transform="matrix(-0.669831,-0.306893,0.306893,-0.669831,731.605,852.31)">
                <circle cx="565" cy="295" r="5" style="fill:rgb(235,235,235);"/>
            </g>
            <g transform="matrix(1,0,0,1,-515,105)">
                <circle cx="565" cy="295" r="5" style="fill:rgb(235,235,235);"/>
            </g>
            <g transform="matrix(1,0,0,1,-525,5)">
                <circle cx="565" cy="295" r="5" style="fill:rgb(235,235,235);"/>
            </g>
            <g transform="matrix(-0.909123,-0.416528,0.416528,-0.909123,930.7,1133.89)">
                <circle cx="565" cy="295" r="5" style="fill:rgb(235,235,235);"/>
            </g>
            <g transform="matrix(0.5,0,0,0.5,75,210)">
                <circle cx="565" cy="295" r="5" style="fill:rgb(235,235,235);"/>
            </g>
            <g transform="matrix(-0.454561,-0.208264,0.208264,-0.454561,438.053,792.68)">
                <circle cx="565" cy="295" r="5" style="fill:rgb(235,235,235);"/>
            </g>
            <g transform="matrix(0.5,0,0,0.5,7.5,95)">
                <circle cx="565" cy="295" r="5" style="fill:rgb(235,235,235);"/>
            </g>
            <g transform="matrix(-0.454561,-0.208264,0.208264,-0.454561,451.518,925.345)">
                <circle cx="565" cy="295" r="5" style="fill:rgb(235,235,235);"/>
            </g>
            <g transform="matrix(0.5,0,0,0.5,-220,370)">
                <circle cx="565" cy="295" r="5" style="fill:rgb(235,235,235);"/>
            </g>
            <g transform="matrix(-0.454561,-0.208264,0.208264,-0.454561,772.889,770.096)">
                <circle cx="565" cy="295" r="5" style="fill:rgb(235,235,235);"/>
            </g>
            <g transform="matrix(-0.441581,0.234534,-0.234534,-0.441581,467.532,768.502)">
                <circle cx="565" cy="295" r="5" style="fill:rgb(235,235,235);"/>
            </g>
            <g transform="matrix(-0.441581,0.234534,-0.234534,-0.441581,539.458,418.919)">
                <circle cx="565" cy="295" r="5" style="fill:rgb(235,235,235);"/>
            </g>
        </g>
        <g transform="matrix(1,0,0,1,1200.5,-204.5)">
            <g transform="matrix(1,0,0,1,-400,5)">
                <circle cx="565" cy="295" r="5" style="fill:rgb(235,235,235);"/>
            </g>
            <g transform="matrix(-0.909123,-0.416528,0.416528,-0.909123,784.498,1176.9)">
                <circle cx="565" cy="295" r="5" style="fill:rgb(235,235,235);"/>
            </g>
            <g transform="matrix(0.736788,0,0,0.736788,-107.601,263.964)">
                <circle cx="565" cy="295" r="5" style="fill:rgb(235,235,235);"/>
            </g>
            <g transform="matrix(0.736788,0,0,0.736788,80.0309,78.9636)">
                <circle cx="565" cy="295" r="5" style="fill:rgb(235,235,235);"/>
            </g>
            <g transform="matrix(-0.669831,-0.306893,0.306893,-0.669831,626.538,819.679)">
                <circle cx="565" cy="295" r="5" style="fill:rgb(235,235,235);"/>
            </g>
            <g transform="matrix(-0.669831,-0.306893,0.306893,-0.669831,731.605,852.31)">
                <circle cx="565" cy="295" r="5" style="fill:rgb(235,235,235);"/>
            </g>
            <g transform="matrix(1,0,0,1,-515,105)">
                <circle cx="565" cy="295" r="5" style="fill:rgb(235,235,235);"/>
            </g>
            <g transform="matrix(1,0,0,1,-525,5)">
                <circle cx="565" cy="295" r="5" style="fill:rgb(235,235,235);"/>
            </g>
            <g transform="matrix(-0.909123,-0.416528,0.416528,-0.909123,930.7,1133.89)">
                <circle cx="565" cy="295" r="5" style="fill:rgb(235,235,235);"/>
            </g>
            <g transform="matrix(0.5,0,0,0.5,75,210)">
                <circle cx="565" cy="295" r="5" style="fill:rgb(235,235,235);"/>
            </g>
            <g transform="matrix(-0.454561,-0.208264,0.208264,-0.454561,438.053,792.68)">
                <circle cx="565" cy="295" r="5" style="fill:rgb(235,235,235);"/>
            </g>
            <g transform="matrix(0.5,0,0,0.5,7.5,95)">
                <circle cx="565" cy="295" r="5" style="fill:rgb(235,235,235);"/>
            </g>
            <g transform="matrix(-0.454561,-0.208264,0.208264,-0.454561,451.518,925.345)">
                <circle cx="565" cy="295" r="5" style="fill:rgb(235,235,235);"/>
            </g>
            <g transform="matrix(0.5,0,0,0.5,-220,370)">
                <circle cx="565" cy="295" r="5" style="fill:rgb(235,235,235);"/>
            </g>
            <g transform="matrix(-0.454561,-0.208264,0.208264,-0.454561,772.889,770.096)">
                <circle cx="565" cy="295" r="5" style="fill:rgb(235,235,235);"/>
            </g>
            <g transform="matrix(-0.441581,0.234534,-0.234534,-0.441581,467.532,768.502)">
                <circle cx="565" cy="295" r="5" style="fill:rgb(235,235,235);"/>
            </g>
            <g transform="matrix(-0.441581,0.234534,-0.234534,-0.441581,539.458,418.919)">
                <circle cx="565" cy="295" r="5" style="fill:rgb(235,235,235);"/>
            </g>
        </g>
        <g transform="matrix(1,0,0,1,0.5,-204.5)">
            <g transform="matrix(0.192867,-0.981225,0.981225,0.192867,278.841,1094.09)">
                <circle cx="565" cy="295" r="5" style="fill:rgb(235,235,235);"/>
            </g>
            <g transform="matrix(-0.584047,0.81172,-0.81172,-0.584047,1657.19,157.855)">
                <circle cx="565" cy="295" r="5" style="fill:rgb(235,235,235);"/>
            </g>
            <g transform="matrix(0.142102,-0.722955,0.722955,0.142102,589.337,857.13)">
                <circle cx="565" cy="295" r="5" style="fill:rgb(235,235,235);"/>
            </g>
            <g transform="matrix(0.142102,-0.722955,0.722955,0.142102,443.998,637.34)">
                <circle cx="565" cy="295" r="5" style="fill:rgb(235,235,235);"/>
            </g>
            <g transform="matrix(-0.430319,0.598065,-0.598065,-0.430319,1276.21,243.954)">
                <circle cx="565" cy="295" r="5" style="fill:rgb(235,235,235);"/>
            </g>
            <g transform="matrix(-0.430319,0.598065,-0.598065,-0.430319,1328.49,147.152)">
                <circle cx="565" cy="295" r="5" style="fill:rgb(235,235,235);"/>
            </g>
            <g transform="matrix(0.192867,-0.981225,0.981225,0.192867,354.784,1226.22)">
                <circle cx="565" cy="295" r="5" style="fill:rgb(235,235,235);"/>
            </g>
            <g transform="matrix(0.192867,-0.981225,0.981225,0.192867,254.733,1216.75)">
                <circle cx="565" cy="295" r="5" style="fill:rgb(235,235,235);"/>
            </g>
            <g transform="matrix(-0.584047,0.81172,-0.81172,-0.584047,1643.18,6.10246)">
                <circle cx="565" cy="295" r="5" style="fill:rgb(235,235,235);"/>
            </g>
            <g transform="matrix(0.0964334,-0.490612,0.490612,0.0964334,571.604,667.549)">
                <circle cx="565" cy="295" r="5" style="fill:rgb(235,235,235);"/>
            </g>
            <g transform="matrix(-0.292024,0.40586,-0.40586,-0.292024,1213.37,423.692)">
                <circle cx="565" cy="295" r="5" style="fill:rgb(235,235,235);"/>
            </g>
            <g transform="matrix(0.0964334,-0.490612,0.490612,0.0964334,445.745,711.603)">
                <circle cx="565" cy="295" r="5" style="fill:rgb(235,235,235);"/>
            </g>
            <g transform="matrix(-0.292024,0.40586,-0.40586,-0.292024,1346.14,436.066)">
                <circle cx="565" cy="295" r="5" style="fill:rgb(235,235,235);"/>
            </g>
            <g transform="matrix(0.0964334,-0.490612,0.490612,0.0964334,671.704,987.87)">
                <circle cx="565" cy="295" r="5" style="fill:rgb(235,235,235);"/>
            </g>
            <g transform="matrix(-0.292024,0.40586,-0.40586,-0.292024,1255.78,90.7873)">
                <circle cx="565" cy="295" r="5" style="fill:rgb(235,235,235);"/>
            </g>
            <g transform="matrix(0.144964,0.478524,-0.478524,0.144964,1195.33,390.103)">
                <circle cx="565" cy="295" r="5" style="fill:rgb(235,235,235);"/>
            </g>
            <g transform="matrix(0.144964,0.478524,-0.478524,0.144964,866.179,252.105)">
                <circle cx="565" cy="295" r="5" style="fill:rgb(235,235,235);"/>
            </g>
        </g>
    </g>
</svg>
