<?xml version="1.0" encoding="UTF-8" standalone="no"?>
<!DOCTYPE svg PUBLIC "-//W3C//DTD SVG 1.1//EN" "http://www.w3.org/Graphics/SVG/1.1/DTD/svg11.dtd">
<svg width="100%" height="100%" viewBox="0 0 720 110" version="1.1" xmlns="http://www.w3.org/2000/svg" xmlns:xlink="http://www.w3.org/1999/xlink" xml:space="preserve" xmlns:serif="http://www.serif.com/" style="fill-rule:evenodd;clip-rule:evenodd;stroke-linejoin:round;stroke-miterlimit:2;">
    <g transform="matrix(10.3623,0,0,10.3623,-5771.5,-7394.22)">
        <path d="M564.491,719.177L563.675,719.177L563.675,720.041L559.379,720.041L559.379,719.225L558.515,719.225L558.515,718.349L560.207,718.349L560.207,719.177L562.787,719.177L562.787,717.509L559.379,717.509L559.379,716.645L558.515,716.645L558.515,714.917L559.331,714.917L559.331,714.065L562.775,714.065L562.775,714.881L563.639,714.881L563.639,715.745L561.947,715.745L561.947,714.917L560.231,714.917L560.231,716.585L563.639,716.585L563.639,717.449L564.491,717.449L564.491,719.177Z" style="fill:rgb(167,119,255);fill-rule:nonzero;"/>
        <path d="M571.091,717.461L570.275,717.461L570.275,718.325L566.855,718.325L566.855,720.041L565.115,720.041L565.115,714.065L570.239,714.065L570.239,714.881L571.091,714.881L571.091,717.461ZM569.375,717.461L569.375,714.917L566.831,714.917L566.831,717.461L569.375,717.461Z" style="fill:rgb(167,119,255);fill-rule:nonzero;"/>
        <path d="M577.691,720.041L575.999,720.041L575.999,718.337L573.455,718.337L573.455,720.041L571.715,720.041L571.715,715.769L572.531,715.769L572.531,714.917L573.395,714.917L573.395,714.065L575.975,714.065L575.975,714.881L576.839,714.881L576.839,715.733L577.691,715.733L577.691,720.041ZM575.975,717.461L575.975,715.733L575.123,715.733L575.123,714.917L574.247,714.917L574.247,715.781L573.431,715.781L573.431,717.461L575.975,717.461Z" style="fill:rgb(167,119,255);fill-rule:nonzero;"/>
        <path d="M584.291,715.745L582.599,715.745L582.599,714.917L580.907,714.917L580.907,715.745L580.031,715.745L580.031,718.301L580.871,718.301L580.871,719.177L582.563,719.177L582.563,718.349L584.291,718.349L584.291,719.177L583.475,719.177L583.475,720.041L580.031,720.041L580.031,719.225L579.179,719.225L579.179,718.361L578.315,718.361L578.315,715.769L579.131,715.769L579.131,714.917L579.995,714.917L579.995,714.065L583.439,714.065L583.439,714.881L584.291,714.881L584.291,715.745Z" style="fill:rgb(167,119,255);fill-rule:nonzero;"/>
        <path d="M590.999,719.993L584.951,719.993L584.951,713.957L590.999,713.957L590.999,714.797L586.691,714.797L586.691,716.513L589.271,716.513L589.271,717.401L586.691,717.401L586.691,719.117L590.999,719.117L590.999,719.993Z" style="fill:rgb(167,119,255);fill-rule:nonzero;"/>
        <path d="M599.027,719.177L598.211,719.177L598.211,720.041L593.915,720.041L593.915,719.225L593.051,719.225L593.051,718.349L594.743,718.349L594.743,719.177L597.323,719.177L597.323,717.509L593.915,717.509L593.915,716.645L593.051,716.645L593.051,714.917L593.867,714.917L593.867,714.065L597.311,714.065L597.311,714.881L598.175,714.881L598.175,715.745L596.483,715.745L596.483,714.917L594.767,714.917L594.767,716.585L598.175,716.585L598.175,717.449L599.027,717.449L599.027,719.177Z" style="fill:rgb(167,119,255);fill-rule:nonzero;"/>
        <path d="M605.627,715.745L603.935,715.745L603.935,714.917L602.243,714.917L602.243,715.745L601.367,715.745L601.367,718.301L602.207,718.301L602.207,719.177L603.899,719.177L603.899,718.349L605.627,718.349L605.627,719.177L604.811,719.177L604.811,720.041L601.367,720.041L601.367,719.225L600.515,719.225L600.515,718.361L599.651,718.361L599.651,715.769L600.467,715.769L600.467,714.917L601.331,714.917L601.331,714.065L604.775,714.065L604.775,714.881L605.627,714.881L605.627,715.745Z" style="fill:rgb(167,119,255);fill-rule:nonzero;"/>
        <path d="M612.227,720.041L610.535,720.041L610.535,718.337L607.991,718.337L607.991,720.041L606.251,720.041L606.251,715.769L607.067,715.769L607.067,714.917L607.931,714.917L607.931,714.065L610.511,714.065L610.511,714.881L611.375,714.881L611.375,715.733L612.227,715.733L612.227,720.041ZM610.511,717.461L610.511,715.733L609.659,715.733L609.659,714.917L608.783,714.917L608.783,715.781L607.967,715.781L607.967,717.461L610.511,717.461Z" style="fill:rgb(167,119,255);fill-rule:nonzero;"/>
        <path d="M618.827,717.461L618.011,717.461L618.011,718.325L614.591,718.325L614.591,720.041L612.851,720.041L612.851,714.065L617.975,714.065L617.975,714.881L618.827,714.881L618.827,717.461ZM617.111,717.461L617.111,714.917L614.567,714.917L614.567,717.461L617.111,717.461Z" style="fill:rgb(167,119,255);fill-rule:nonzero;"/>
        <path d="M625.535,719.993L619.487,719.993L619.487,713.957L625.535,713.957L625.535,714.797L621.227,714.797L621.227,716.513L623.807,716.513L623.807,717.401L621.227,717.401L621.227,719.117L625.535,719.117L625.535,719.993Z" style="fill:rgb(167,119,255);fill-rule:nonzero;"/>
    </g>
    <g transform="matrix(10.7318,0,0,11.0197,-5993.85,-7865.62)">
        <path d="M564.491,719.177L563.675,719.177L563.675,720.041L559.379,720.041L559.379,719.225L558.515,719.225L558.515,718.349L560.207,718.349L560.207,719.177L562.787,719.177L562.787,717.509L559.379,717.509L559.379,716.645L558.515,716.645L558.515,714.917L559.331,714.917L559.331,714.065L562.775,714.065L562.775,714.881L563.639,714.881L563.639,715.745L561.947,715.745L561.947,714.917L560.231,714.917L560.231,716.585L563.639,716.585L563.639,717.449L564.491,717.449L564.491,719.177Z" style="fill:rgb(112,0,169);fill-rule:nonzero;"/>
        <path d="M571.091,717.461L570.275,717.461L570.275,718.325L566.855,718.325L566.855,720.041L565.115,720.041L565.115,714.065L570.239,714.065L570.239,714.881L571.091,714.881L571.091,717.461ZM569.375,717.461L569.375,714.917L566.831,714.917L566.831,717.461L569.375,717.461Z" style="fill:rgb(112,0,169);fill-rule:nonzero;"/>
        <path d="M577.691,720.041L575.999,720.041L575.999,718.337L573.455,718.337L573.455,720.041L571.715,720.041L571.715,715.769L572.531,715.769L572.531,714.917L573.395,714.917L573.395,714.065L575.975,714.065L575.975,714.881L576.839,714.881L576.839,715.733L577.691,715.733L577.691,720.041ZM575.975,717.461L575.975,715.733L575.123,715.733L575.123,714.917L574.247,714.917L574.247,715.781L573.431,715.781L573.431,717.461L575.975,717.461Z" style="fill:rgb(112,0,169);fill-rule:nonzero;"/>
        <path d="M584.291,715.745L582.599,715.745L582.599,714.917L580.907,714.917L580.907,715.745L580.031,715.745L580.031,718.301L580.871,718.301L580.871,719.177L582.563,719.177L582.563,718.349L584.291,718.349L584.291,719.177L583.475,719.177L583.475,720.041L580.031,720.041L580.031,719.225L579.179,719.225L579.179,718.361L578.315,718.361L578.315,715.769L579.131,715.769L579.131,714.917L579.995,714.917L579.995,714.065L583.439,714.065L583.439,714.881L584.291,714.881L584.291,715.745Z" style="fill:rgb(112,0,169);fill-rule:nonzero;"/>
        <path d="M590.999,719.993L584.951,719.993L584.951,713.957L590.999,713.957L590.999,714.797L586.691,714.797L586.691,716.513L589.271,716.513L589.271,717.401L586.691,717.401L586.691,719.117L590.999,719.117L590.999,719.993Z" style="fill:rgb(112,0,169);fill-rule:nonzero;"/>
        <path d="M599.027,719.177L598.211,719.177L598.211,720.041L593.915,720.041L593.915,719.225L593.051,719.225L593.051,718.349L594.743,718.349L594.743,719.177L597.323,719.177L597.323,717.509L593.915,717.509L593.915,716.645L593.051,716.645L593.051,714.917L593.867,714.917L593.867,714.065L597.311,714.065L597.311,714.881L598.175,714.881L598.175,715.745L596.483,715.745L596.483,714.917L594.767,714.917L594.767,716.585L598.175,716.585L598.175,717.449L599.027,717.449L599.027,719.177Z" style="fill:rgb(112,0,169);fill-rule:nonzero;"/>
        <path d="M605.627,715.745L603.935,715.745L603.935,714.917L602.243,714.917L602.243,715.745L601.367,715.745L601.367,718.301L602.207,718.301L602.207,719.177L603.899,719.177L603.899,718.349L605.627,718.349L605.627,719.177L604.811,719.177L604.811,720.041L601.367,720.041L601.367,719.225L600.515,719.225L600.515,718.361L599.651,718.361L599.651,715.769L600.467,715.769L600.467,714.917L601.331,714.917L601.331,714.065L604.775,714.065L604.775,714.881L605.627,714.881L605.627,715.745Z" style="fill:rgb(112,0,169);fill-rule:nonzero;"/>
        <path d="M612.227,720.041L610.535,720.041L610.535,718.337L607.991,718.337L607.991,720.041L606.251,720.041L606.251,715.769L607.067,715.769L607.067,714.917L607.931,714.917L607.931,714.065L610.511,714.065L610.511,714.881L611.375,714.881L611.375,715.733L612.227,715.733L612.227,720.041ZM610.511,717.461L610.511,715.733L609.659,715.733L609.659,714.917L608.783,714.917L608.783,715.781L607.967,715.781L607.967,717.461L610.511,717.461Z" style="fill:rgb(112,0,169);fill-rule:nonzero;"/>
        <path d="M618.827,717.461L618.011,717.461L618.011,718.325L614.591,718.325L614.591,720.041L612.851,720.041L612.851,714.065L617.975,714.065L617.975,714.881L618.827,714.881L618.827,717.461ZM617.111,717.461L617.111,714.917L614.567,714.917L614.567,717.461L617.111,717.461Z" style="fill:rgb(112,0,169);fill-rule:nonzero;"/>
        <path d="M625.535,719.993L619.487,719.993L619.487,713.957L625.535,713.957L625.535,714.797L621.227,714.797L621.227,716.513L623.807,716.513L623.807,717.401L621.227,717.401L621.227,719.117L625.535,719.117L625.535,719.993Z" style="fill:rgb(112,0,169);fill-rule:nonzero;"/>
    </g>
    <g transform="matrix(10.3623,0,0,10.3623,-5771.5,-7394.22)">
        <path d="M563.723,719.177L562.907,719.177L562.907,720.041L558.611,720.041L558.611,719.225L557.747,719.225L557.747,718.349L559.439,718.349L559.439,719.177L562.019,719.177L562.019,717.509L558.611,717.509L558.611,716.645L557.747,716.645L557.747,714.917L558.563,714.917L558.563,714.065L562.007,714.065L562.007,714.881L562.871,714.881L562.871,715.745L561.179,715.745L561.179,714.917L559.463,714.917L559.463,716.585L562.871,716.585L562.871,717.449L563.723,717.449L563.723,719.177Z" style="fill:rgb(255,202,11);fill-opacity:0.56;fill-rule:nonzero;"/>
        <path d="M570.323,717.461L569.507,717.461L569.507,718.325L566.087,718.325L566.087,720.041L564.347,720.041L564.347,714.065L569.471,714.065L569.471,714.881L570.323,714.881L570.323,717.461ZM568.607,717.461L568.607,714.917L566.063,714.917L566.063,717.461L568.607,717.461Z" style="fill:rgb(255,202,11);fill-opacity:0.56;fill-rule:nonzero;"/>
        <path d="M576.923,720.041L575.231,720.041L575.231,718.337L572.687,718.337L572.687,720.041L570.947,720.041L570.947,715.769L571.763,715.769L571.763,714.917L572.627,714.917L572.627,714.065L575.207,714.065L575.207,714.881L576.071,714.881L576.071,715.733L576.923,715.733L576.923,720.041ZM575.207,717.461L575.207,715.733L574.355,715.733L574.355,714.917L573.479,714.917L573.479,715.781L572.663,715.781L572.663,717.461L575.207,717.461Z" style="fill:rgb(255,202,11);fill-opacity:0.56;fill-rule:nonzero;"/>
        <path d="M583.523,715.745L581.831,715.745L581.831,714.917L580.139,714.917L580.139,715.745L579.263,715.745L579.263,718.301L580.103,718.301L580.103,719.177L581.795,719.177L581.795,718.349L583.523,718.349L583.523,719.177L582.707,719.177L582.707,720.041L579.263,720.041L579.263,719.225L578.411,719.225L578.411,718.361L577.547,718.361L577.547,715.769L578.363,715.769L578.363,714.917L579.227,714.917L579.227,714.065L582.671,714.065L582.671,714.881L583.523,714.881L583.523,715.745Z" style="fill:rgb(255,202,11);fill-opacity:0.56;fill-rule:nonzero;"/>
        <path d="M590.231,719.993L584.183,719.993L584.183,713.957L590.231,713.957L590.231,714.797L585.923,714.797L585.923,716.513L588.503,716.513L588.503,717.401L585.923,717.401L585.923,719.117L590.231,719.117L590.231,719.993Z" style="fill:rgb(255,202,11);fill-opacity:0.56;fill-rule:nonzero;"/>
        <path d="M599.795,719.177L598.979,719.177L598.979,720.041L594.683,720.041L594.683,719.225L593.819,719.225L593.819,718.349L595.511,718.349L595.511,719.177L598.091,719.177L598.091,717.509L594.683,717.509L594.683,716.645L593.819,716.645L593.819,714.917L594.635,714.917L594.635,714.065L598.079,714.065L598.079,714.881L598.943,714.881L598.943,715.745L597.251,715.745L597.251,714.917L595.535,714.917L595.535,716.585L598.943,716.585L598.943,717.449L599.795,717.449L599.795,719.177Z" style="fill:rgb(255,202,11);fill-opacity:0.56;fill-rule:nonzero;"/>
        <path d="M606.395,715.745L604.703,715.745L604.703,714.917L603.011,714.917L603.011,715.745L602.135,715.745L602.135,718.301L602.975,718.301L602.975,719.177L604.667,719.177L604.667,718.349L606.395,718.349L606.395,719.177L605.579,719.177L605.579,720.041L602.135,720.041L602.135,719.225L601.283,719.225L601.283,718.361L600.419,718.361L600.419,715.769L601.235,715.769L601.235,714.917L602.099,714.917L602.099,714.065L605.543,714.065L605.543,714.881L606.395,714.881L606.395,715.745Z" style="fill:rgb(255,202,11);fill-opacity:0.56;fill-rule:nonzero;"/>
        <path d="M612.995,720.041L611.303,720.041L611.303,718.337L608.759,718.337L608.759,720.041L607.019,720.041L607.019,715.769L607.835,715.769L607.835,714.917L608.699,714.917L608.699,714.065L611.279,714.065L611.279,714.881L612.143,714.881L612.143,715.733L612.995,715.733L612.995,720.041ZM611.279,717.461L611.279,715.733L610.427,715.733L610.427,714.917L609.551,714.917L609.551,715.781L608.735,715.781L608.735,717.461L611.279,717.461Z" style="fill:rgb(255,202,11);fill-opacity:0.56;fill-rule:nonzero;"/>
        <path d="M619.595,717.461L618.779,717.461L618.779,718.325L615.359,718.325L615.359,720.041L613.619,720.041L613.619,714.065L618.743,714.065L618.743,714.881L619.595,714.881L619.595,717.461ZM617.879,717.461L617.879,714.917L615.335,714.917L615.335,717.461L617.879,717.461Z" style="fill:rgb(255,202,11);fill-opacity:0.56;fill-rule:nonzero;"/>
        <path d="M626.303,719.993L620.255,719.993L620.255,713.957L626.303,713.957L626.303,714.797L621.995,714.797L621.995,716.513L624.575,716.513L624.575,717.401L621.995,717.401L621.995,719.117L626.303,719.117L626.303,719.993Z" style="fill:rgb(255,202,11);fill-opacity:0.56;fill-rule:nonzero;"/>
    </g>
    <g transform="matrix(10.3623,0,0,10.3623,-5775.5,-7398.22)">
        <path d="M563.723,719.177L562.907,719.177L562.907,720.041L558.611,720.041L558.611,719.225L557.747,719.225L557.747,718.349L559.439,718.349L559.439,719.177L562.019,719.177L562.019,717.509L558.611,717.509L558.611,716.645L557.747,716.645L557.747,714.917L558.563,714.917L558.563,714.065L562.007,714.065L562.007,714.881L562.871,714.881L562.871,715.745L561.179,715.745L561.179,714.917L559.463,714.917L559.463,716.585L562.871,716.585L562.871,717.449L563.723,717.449L563.723,719.177Z" style="fill:rgb(255,87,179);fill-rule:nonzero;"/>
        <path d="M570.323,717.461L569.507,717.461L569.507,718.325L566.087,718.325L566.087,720.041L564.347,720.041L564.347,714.065L569.471,714.065L569.471,714.881L570.323,714.881L570.323,717.461ZM568.607,717.461L568.607,714.917L566.063,714.917L566.063,717.461L568.607,717.461Z" style="fill:rgb(255,87,179);fill-rule:nonzero;"/>
        <path d="M576.923,720.041L575.231,720.041L575.231,718.337L572.687,718.337L572.687,720.041L570.947,720.041L570.947,715.769L571.763,715.769L571.763,714.917L572.627,714.917L572.627,714.065L575.207,714.065L575.207,714.881L576.071,714.881L576.071,715.733L576.923,715.733L576.923,720.041ZM575.207,717.461L575.207,715.733L574.355,715.733L574.355,714.917L573.479,714.917L573.479,715.781L572.663,715.781L572.663,717.461L575.207,717.461Z" style="fill:rgb(255,87,179);fill-rule:nonzero;"/>
        <path d="M583.523,715.745L581.831,715.745L581.831,714.917L580.139,714.917L580.139,715.745L579.263,715.745L579.263,718.301L580.103,718.301L580.103,719.177L581.795,719.177L581.795,718.349L583.523,718.349L583.523,719.177L582.707,719.177L582.707,720.041L579.263,720.041L579.263,719.225L578.411,719.225L578.411,718.361L577.547,718.361L577.547,715.769L578.363,715.769L578.363,714.917L579.227,714.917L579.227,714.065L582.671,714.065L582.671,714.881L583.523,714.881L583.523,715.745Z" style="fill:rgb(255,87,179);fill-rule:nonzero;"/>
        <path d="M590.231,719.993L584.183,719.993L584.183,713.957L590.231,713.957L590.231,714.797L585.923,714.797L585.923,716.513L588.503,716.513L588.503,717.401L585.923,717.401L585.923,719.117L590.231,719.117L590.231,719.993Z" style="fill:rgb(255,87,179);fill-rule:nonzero;"/>
        <path d="M599.795,719.177L598.979,719.177L598.979,720.041L594.683,720.041L594.683,719.225L593.819,719.225L593.819,718.349L595.511,718.349L595.511,719.177L598.091,719.177L598.091,717.509L594.683,717.509L594.683,716.645L593.819,716.645L593.819,714.917L594.635,714.917L594.635,714.065L598.079,714.065L598.079,714.881L598.943,714.881L598.943,715.745L597.251,715.745L597.251,714.917L595.535,714.917L595.535,716.585L598.943,716.585L598.943,717.449L599.795,717.449L599.795,719.177Z" style="fill:rgb(255,87,179);fill-rule:nonzero;"/>
        <path d="M606.395,715.745L604.703,715.745L604.703,714.917L603.011,714.917L603.011,715.745L602.135,715.745L602.135,718.301L602.975,718.301L602.975,719.177L604.667,719.177L604.667,718.349L606.395,718.349L606.395,719.177L605.579,719.177L605.579,720.041L602.135,720.041L602.135,719.225L601.283,719.225L601.283,718.361L600.419,718.361L600.419,715.769L601.235,715.769L601.235,714.917L602.099,714.917L602.099,714.065L605.543,714.065L605.543,714.881L606.395,714.881L606.395,715.745Z" style="fill:rgb(255,87,179);fill-rule:nonzero;"/>
        <path d="M612.995,720.041L611.303,720.041L611.303,718.337L608.759,718.337L608.759,720.041L607.019,720.041L607.019,715.769L607.835,715.769L607.835,714.917L608.699,714.917L608.699,714.065L611.279,714.065L611.279,714.881L612.143,714.881L612.143,715.733L612.995,715.733L612.995,720.041ZM611.279,717.461L611.279,715.733L610.427,715.733L610.427,714.917L609.551,714.917L609.551,715.781L608.735,715.781L608.735,717.461L611.279,717.461Z" style="fill:rgb(255,87,179);fill-rule:nonzero;"/>
        <path d="M619.595,717.461L618.779,717.461L618.779,718.325L615.359,718.325L615.359,720.041L613.619,720.041L613.619,714.065L618.743,714.065L618.743,714.881L619.595,714.881L619.595,717.461ZM617.879,717.461L617.879,714.917L615.335,714.917L615.335,717.461L617.879,717.461Z" style="fill:rgb(255,87,179);fill-rule:nonzero;"/>
        <path d="M626.303,719.993L620.255,719.993L620.255,713.957L626.303,713.957L626.303,714.797L621.995,714.797L621.995,716.513L624.575,716.513L624.575,717.401L621.995,717.401L621.995,719.117L626.303,719.117L626.303,719.993Z" style="fill:rgb(255,87,179);fill-rule:nonzero;"/>
    </g>
    <g transform="matrix(10.3623,0,0,10.3623,-5773.5,-7396.22)">
        <path d="M564.491,719.177L563.675,719.177L563.675,720.041L559.379,720.041L559.379,719.225L558.515,719.225L558.515,718.349L560.207,718.349L560.207,719.177L562.787,719.177L562.787,717.509L559.379,717.509L559.379,716.645L558.515,716.645L558.515,714.917L559.331,714.917L559.331,714.065L562.775,714.065L562.775,714.881L563.639,714.881L563.639,715.745L561.947,715.745L561.947,714.917L560.231,714.917L560.231,716.585L563.639,716.585L563.639,717.449L564.491,717.449L564.491,719.177Z" style="fill:url(#_Linear1);fill-rule:nonzero;"/>
        <path d="M571.091,717.461L570.275,717.461L570.275,718.325L566.855,718.325L566.855,720.041L565.115,720.041L565.115,714.065L570.239,714.065L570.239,714.881L571.091,714.881L571.091,717.461ZM569.375,717.461L569.375,714.917L566.831,714.917L566.831,717.461L569.375,717.461Z" style="fill:url(#_Linear2);fill-rule:nonzero;"/>
        <path d="M577.691,720.041L575.999,720.041L575.999,718.337L573.455,718.337L573.455,720.041L571.715,720.041L571.715,715.769L572.531,715.769L572.531,714.917L573.395,714.917L573.395,714.065L575.975,714.065L575.975,714.881L576.839,714.881L576.839,715.733L577.691,715.733L577.691,720.041ZM575.975,717.461L575.975,715.733L575.123,715.733L575.123,714.917L574.247,714.917L574.247,715.781L573.431,715.781L573.431,717.461L575.975,717.461Z" style="fill:url(#_Linear3);fill-rule:nonzero;"/>
        <path d="M584.291,715.745L582.599,715.745L582.599,714.917L580.907,714.917L580.907,715.745L580.031,715.745L580.031,718.301L580.871,718.301L580.871,719.177L582.563,719.177L582.563,718.349L584.291,718.349L584.291,719.177L583.475,719.177L583.475,720.041L580.031,720.041L580.031,719.225L579.179,719.225L579.179,718.361L578.315,718.361L578.315,715.769L579.131,715.769L579.131,714.917L579.995,714.917L579.995,714.065L583.439,714.065L583.439,714.881L584.291,714.881L584.291,715.745Z" style="fill:url(#_Linear4);fill-rule:nonzero;"/>
        <path d="M590.999,719.993L584.951,719.993L584.951,713.957L590.999,713.957L590.999,714.797L586.691,714.797L586.691,716.513L589.271,716.513L589.271,717.401L586.691,717.401L586.691,719.117L590.999,719.117L590.999,719.993Z" style="fill:url(#_Linear5);fill-rule:nonzero;"/>
        <path d="M599.027,719.177L598.211,719.177L598.211,720.041L593.915,720.041L593.915,719.225L593.051,719.225L593.051,718.349L594.743,718.349L594.743,719.177L597.323,719.177L597.323,717.509L593.915,717.509L593.915,716.645L593.051,716.645L593.051,714.917L593.867,714.917L593.867,714.065L597.311,714.065L597.311,714.881L598.175,714.881L598.175,715.745L596.483,715.745L596.483,714.917L594.767,714.917L594.767,716.585L598.175,716.585L598.175,717.449L599.027,717.449L599.027,719.177Z" style="fill:url(#_Linear6);fill-rule:nonzero;"/>
        <path d="M605.627,715.745L603.935,715.745L603.935,714.917L602.243,714.917L602.243,715.745L601.367,715.745L601.367,718.301L602.207,718.301L602.207,719.177L603.899,719.177L603.899,718.349L605.627,718.349L605.627,719.177L604.811,719.177L604.811,720.041L601.367,720.041L601.367,719.225L600.515,719.225L600.515,718.361L599.651,718.361L599.651,715.769L600.467,715.769L600.467,714.917L601.331,714.917L601.331,714.065L604.775,714.065L604.775,714.881L605.627,714.881L605.627,715.745Z" style="fill:url(#_Linear7);fill-rule:nonzero;"/>
        <path d="M612.227,720.041L610.535,720.041L610.535,718.337L607.991,718.337L607.991,720.041L606.251,720.041L606.251,715.769L607.067,715.769L607.067,714.917L607.931,714.917L607.931,714.065L610.511,714.065L610.511,714.881L611.375,714.881L611.375,715.733L612.227,715.733L612.227,720.041ZM610.511,717.461L610.511,715.733L609.659,715.733L609.659,714.917L608.783,714.917L608.783,715.781L607.967,715.781L607.967,717.461L610.511,717.461Z" style="fill:url(#_Linear8);fill-rule:nonzero;"/>
        <path d="M618.827,717.461L618.011,717.461L618.011,718.325L614.591,718.325L614.591,720.041L612.851,720.041L612.851,714.065L617.975,714.065L617.975,714.881L618.827,714.881L618.827,717.461ZM617.111,717.461L617.111,714.917L614.567,714.917L614.567,717.461L617.111,717.461Z" style="fill:url(#_Linear9);fill-rule:nonzero;"/>
        <path d="M625.535,719.993L619.487,719.993L619.487,713.957L625.535,713.957L625.535,714.797L621.227,714.797L621.227,716.513L623.807,716.513L623.807,717.401L621.227,717.401L621.227,719.117L625.535,719.117L625.535,719.993Z" style="fill:url(#_Linear10);fill-rule:nonzero;"/>
    </g>
    <g transform="matrix(4.55425,0,0,4.55425,-2352.55,-3169.54)">
        <path d="M567.791,715.745L566.099,715.745L566.099,714.917L564.407,714.917L564.407,715.745L563.531,715.745L563.531,718.301L564.371,718.301L564.371,719.177L566.063,719.177L566.063,718.349L567.791,718.349L567.791,719.177L566.975,719.177L566.975,720.041L563.531,720.041L563.531,719.225L562.679,719.225L562.679,718.361L561.815,718.361L561.815,715.769L562.631,715.769L562.631,714.917L563.495,714.917L563.495,714.065L566.939,714.065L566.939,714.881L567.791,714.881L567.791,715.745Z" style="fill:rgb(255,51,245);fill-rule:nonzero;"/>
        <path d="M574.391,720.041L572.699,720.041L572.699,717.485L570.155,717.485L570.155,720.041L568.415,720.041L568.415,714.065L570.107,714.065L570.107,716.609L572.663,716.609L572.663,714.065L574.391,714.065L574.391,720.041Z" style="fill:rgb(255,51,245);fill-rule:nonzero;"/>
        <path d="M580.991,720.041L579.299,720.041L579.299,718.337L576.755,718.337L576.755,720.041L575.015,720.041L575.015,715.769L575.831,715.769L575.831,714.917L576.695,714.917L576.695,714.065L579.275,714.065L579.275,714.881L580.139,714.881L580.139,715.733L580.991,715.733L580.991,720.041ZM579.275,717.461L579.275,715.733L578.423,715.733L578.423,714.917L577.547,714.917L577.547,715.781L576.731,715.781L576.731,717.461L579.275,717.461Z" style="fill:rgb(255,51,245);fill-rule:nonzero;"/>
        <path d="M587.591,717.461L586.775,717.461L586.775,718.325L583.355,718.325L583.355,720.041L581.615,720.041L581.615,714.065L586.739,714.065L586.739,714.881L587.591,714.881L587.591,717.461ZM585.875,717.461L585.875,714.917L583.331,714.917L583.331,717.461L585.875,717.461Z" style="fill:rgb(255,51,245);fill-rule:nonzero;"/>
        <path d="M592.907,714.893L591.227,714.893L591.227,720.041L589.499,720.041L589.499,714.941L587.783,714.941L587.783,714.065L592.907,714.065L592.907,714.893Z" style="fill:rgb(255,51,245);fill-rule:nonzero;"/>
        <path d="M600.899,719.993L594.851,719.993L594.851,713.957L600.899,713.957L600.899,714.797L596.591,714.797L596.591,716.513L599.171,716.513L599.171,717.401L596.591,717.401L596.591,719.117L600.899,719.117L600.899,719.993Z" style="fill:rgb(255,51,245);fill-rule:nonzero;"/>
        <path d="M607.391,717.461L605.699,717.461L605.699,718.301L606.539,718.301L606.539,719.165L607.391,719.165L607.391,720.041L604.847,720.041L604.847,719.225L603.995,719.225L603.995,718.337L603.155,718.337L603.155,720.041L601.415,720.041L601.415,714.065L606.539,714.065L606.539,714.881L607.391,714.881L607.391,717.461ZM605.675,716.609L605.675,714.917L603.131,714.917L603.131,717.461L604.859,717.461L604.859,716.609L605.675,716.609Z" style="fill:rgb(255,51,245);fill-rule:nonzero;"/>
        <path d="M617.063,719.177L616.247,719.177L616.247,720.041L611.951,720.041L611.951,719.225L611.087,719.225L611.087,714.917L611.903,714.917L611.903,714.065L616.211,714.065L616.211,714.881L617.063,714.881L617.063,719.177ZM615.347,719.177L615.347,714.917L612.803,714.917L612.803,719.177L615.347,719.177Z" style="fill:rgb(255,51,245);fill-rule:nonzero;"/>
        <path d="M623.663,720.041L621.971,720.041L621.971,719.225L621.119,719.225L621.119,718.361L620.267,718.361L620.267,717.485L619.427,717.485L619.427,720.041L617.687,720.041L617.687,714.065L619.379,714.065L619.379,714.881L620.243,714.881L620.243,715.733L621.095,715.733L621.095,716.609L621.935,716.609L621.935,714.065L623.663,714.065L623.663,720.041Z" style="fill:rgb(255,51,245);fill-rule:nonzero;"/>
        <path d="M630.371,719.993L624.323,719.993L624.323,713.957L630.371,713.957L630.371,714.797L626.063,714.797L626.063,716.513L628.643,716.513L628.643,717.401L626.063,717.401L626.063,719.117L630.371,719.117L630.371,719.993Z" style="fill:rgb(255,51,245);fill-rule:nonzero;"/>
    </g>
    <g transform="matrix(4.55425,0,0,4.55425,-2358.55,-3171.54)">
        <path d="M567.791,715.745L566.099,715.745L566.099,714.917L564.407,714.917L564.407,715.745L563.531,715.745L563.531,718.301L564.371,718.301L564.371,719.177L566.063,719.177L566.063,718.349L567.791,718.349L567.791,719.177L566.975,719.177L566.975,720.041L563.531,720.041L563.531,719.225L562.679,719.225L562.679,718.361L561.815,718.361L561.815,715.769L562.631,715.769L562.631,714.917L563.495,714.917L563.495,714.065L566.939,714.065L566.939,714.881L567.791,714.881L567.791,715.745Z" style="fill:rgb(0,245,249);fill-opacity:0.6;fill-rule:nonzero;"/>
        <path d="M574.391,720.041L572.699,720.041L572.699,717.485L570.155,717.485L570.155,720.041L568.415,720.041L568.415,714.065L570.107,714.065L570.107,716.609L572.663,716.609L572.663,714.065L574.391,714.065L574.391,720.041Z" style="fill:rgb(0,245,249);fill-opacity:0.6;fill-rule:nonzero;"/>
        <path d="M580.991,720.041L579.299,720.041L579.299,718.337L576.755,718.337L576.755,720.041L575.015,720.041L575.015,715.769L575.831,715.769L575.831,714.917L576.695,714.917L576.695,714.065L579.275,714.065L579.275,714.881L580.139,714.881L580.139,715.733L580.991,715.733L580.991,720.041ZM579.275,717.461L579.275,715.733L578.423,715.733L578.423,714.917L577.547,714.917L577.547,715.781L576.731,715.781L576.731,717.461L579.275,717.461Z" style="fill:rgb(0,245,249);fill-opacity:0.6;fill-rule:nonzero;"/>
        <path d="M587.591,717.461L586.775,717.461L586.775,718.325L583.355,718.325L583.355,720.041L581.615,720.041L581.615,714.065L586.739,714.065L586.739,714.881L587.591,714.881L587.591,717.461ZM585.875,717.461L585.875,714.917L583.331,714.917L583.331,717.461L585.875,717.461Z" style="fill:rgb(0,245,249);fill-opacity:0.6;fill-rule:nonzero;"/>
        <path d="M592.907,714.893L591.227,714.893L591.227,720.041L589.499,720.041L589.499,714.941L587.783,714.941L587.783,714.065L592.907,714.065L592.907,714.893Z" style="fill:rgb(0,245,249);fill-opacity:0.6;fill-rule:nonzero;"/>
        <path d="M600.899,719.993L594.851,719.993L594.851,713.957L600.899,713.957L600.899,714.797L596.591,714.797L596.591,716.513L599.171,716.513L599.171,717.401L596.591,717.401L596.591,719.117L600.899,719.117L600.899,719.993Z" style="fill:rgb(0,245,249);fill-opacity:0.6;fill-rule:nonzero;"/>
        <path d="M607.391,717.461L605.699,717.461L605.699,718.301L606.539,718.301L606.539,719.165L607.391,719.165L607.391,720.041L604.847,720.041L604.847,719.225L603.995,719.225L603.995,718.337L603.155,718.337L603.155,720.041L601.415,720.041L601.415,714.065L606.539,714.065L606.539,714.881L607.391,714.881L607.391,717.461ZM605.675,716.609L605.675,714.917L603.131,714.917L603.131,717.461L604.859,717.461L604.859,716.609L605.675,716.609Z" style="fill:rgb(0,245,249);fill-opacity:0.6;fill-rule:nonzero;"/>
        <path d="M617.063,719.177L616.247,719.177L616.247,720.041L611.951,720.041L611.951,719.225L611.087,719.225L611.087,714.917L611.903,714.917L611.903,714.065L616.211,714.065L616.211,714.881L617.063,714.881L617.063,719.177ZM615.347,719.177L615.347,714.917L612.803,714.917L612.803,719.177L615.347,719.177Z" style="fill:rgb(0,245,249);fill-opacity:0.6;fill-rule:nonzero;"/>
        <path d="M623.663,720.041L621.971,720.041L621.971,719.225L621.119,719.225L621.119,718.361L620.267,718.361L620.267,717.485L619.427,717.485L619.427,720.041L617.687,720.041L617.687,714.065L619.379,714.065L619.379,714.881L620.243,714.881L620.243,715.733L621.095,715.733L621.095,716.609L621.935,716.609L621.935,714.065L623.663,714.065L623.663,720.041Z" style="fill:rgb(0,245,249);fill-opacity:0.6;fill-rule:nonzero;"/>
        <path d="M630.371,719.993L624.323,719.993L624.323,713.957L630.371,713.957L630.371,714.797L626.063,714.797L626.063,716.513L628.643,716.513L628.643,717.401L626.063,717.401L626.063,719.117L630.371,719.117L630.371,719.993Z" style="fill:rgb(0,245,249);fill-opacity:0.6;fill-rule:nonzero;"/>
    </g>
    <defs>
        <linearGradient id="_Linear1" x1="0" y1="0" x2="1" y2="0" gradientUnits="userSpaceOnUse" gradientTransform="matrix(44.3918,13.5105,-1.11652,3.66856,576.916,709.434)"><stop offset="0" style="stop-color:rgb(113,55,240);stop-opacity:1"/><stop offset="1" style="stop-color:rgb(186,0,115);stop-opacity:1"/></linearGradient>
        <linearGradient id="_Linear2" x1="0" y1="0" x2="1" y2="0" gradientUnits="userSpaceOnUse" gradientTransform="matrix(44.3918,13.5105,-1.11652,3.66856,576.916,709.434)"><stop offset="0" style="stop-color:rgb(113,55,240);stop-opacity:1"/><stop offset="1" style="stop-color:rgb(186,0,115);stop-opacity:1"/></linearGradient>
        <linearGradient id="_Linear3" x1="0" y1="0" x2="1" y2="0" gradientUnits="userSpaceOnUse" gradientTransform="matrix(44.3918,13.5105,-1.11652,3.66856,576.916,709.434)"><stop offset="0" style="stop-color:rgb(113,55,240);stop-opacity:1"/><stop offset="1" style="stop-color:rgb(186,0,115);stop-opacity:1"/></linearGradient>
        <linearGradient id="_Linear4" x1="0" y1="0" x2="1" y2="0" gradientUnits="userSpaceOnUse" gradientTransform="matrix(44.3918,13.5105,-1.11652,3.66856,576.916,709.434)"><stop offset="0" style="stop-color:rgb(113,55,240);stop-opacity:1"/><stop offset="1" style="stop-color:rgb(186,0,115);stop-opacity:1"/></linearGradient>
        <linearGradient id="_Linear5" x1="0" y1="0" x2="1" y2="0" gradientUnits="userSpaceOnUse" gradientTransform="matrix(44.3918,13.5105,-1.11652,3.66856,576.916,709.434)"><stop offset="0" style="stop-color:rgb(113,55,240);stop-opacity:1"/><stop offset="1" style="stop-color:rgb(186,0,115);stop-opacity:1"/></linearGradient>
        <linearGradient id="_Linear6" x1="0" y1="0" x2="1" y2="0" gradientUnits="userSpaceOnUse" gradientTransform="matrix(44.3918,13.5105,-1.11652,3.66856,576.916,709.434)"><stop offset="0" style="stop-color:rgb(113,55,240);stop-opacity:1"/><stop offset="1" style="stop-color:rgb(186,0,115);stop-opacity:1"/></linearGradient>
        <linearGradient id="_Linear7" x1="0" y1="0" x2="1" y2="0" gradientUnits="userSpaceOnUse" gradientTransform="matrix(44.3918,13.5105,-1.11652,3.66856,576.916,709.434)"><stop offset="0" style="stop-color:rgb(113,55,240);stop-opacity:1"/><stop offset="1" style="stop-color:rgb(186,0,115);stop-opacity:1"/></linearGradient>
        <linearGradient id="_Linear8" x1="0" y1="0" x2="1" y2="0" gradientUnits="userSpaceOnUse" gradientTransform="matrix(44.3918,13.5105,-1.11652,3.66856,576.916,709.434)"><stop offset="0" style="stop-color:rgb(113,55,240);stop-opacity:1"/><stop offset="1" style="stop-color:rgb(186,0,115);stop-opacity:1"/></linearGradient>
        <linearGradient id="_Linear9" x1="0" y1="0" x2="1" y2="0" gradientUnits="userSpaceOnUse" gradientTransform="matrix(44.3918,13.5105,-1.11652,3.66856,576.916,709.434)"><stop offset="0" style="stop-color:rgb(113,55,240);stop-opacity:1"/><stop offset="1" style="stop-color:rgb(186,0,115);stop-opacity:1"/></linearGradient>
        <linearGradient id="_Linear10" x1="0" y1="0" x2="1" y2="0" gradientUnits="userSpaceOnUse" gradientTransform="matrix(44.3918,13.5105,-1.11652,3.66856,576.916,709.434)"><stop offset="0" style="stop-color:rgb(113,55,240);stop-opacity:1"/><stop offset="1" style="stop-color:rgb(186,0,115);stop-opacity:1"/></linearGradient>
    </defs>
</svg>
